<svg id="Layer_1" data-name="Layer 1" xmlns="http://www.w3.org/2000/svg" viewBox="0 0 1024 256"><defs><style>.cls-1{fill:#453c90;}.cls-2{fill:#d40058;}</style></defs><path class="cls-1" d="M107.24,254.23c-.49-.06-1.32-.2-2.49-.4L102,253.3a127.12,127.12,0,0,1-34.67-12.64l.37-2.23c2.74-17.29,5.59-35.15,12.72-51.3a14.24,14.24,0,0,0,3.5-6.24l27.25.87,5.32.1h0a12.43,12.43,0,0,0,6.18-2.08,12.32,12.32,0,0,0,6.62,1.91,11.87,11.87,0,0,0,8.63-3.64c5,2.43,9.69,4.51,15.69,4.51h1.25a107.69,107.69,0,0,0,19.67-3.49c6.32-1.54,13.23-3.39,20.26-5.47A151.13,151.13,0,0,1,177.54,190a165.57,165.57,0,0,1-27.68,16.17,53.88,53.88,0,0,0-14.14,10.15,45.74,45.74,0,0,0-6.91,10.06c-.45.79-.88,1.6-1.36,2.41-.88,1.5-1.87,2.93-2.94,4.45a38.42,38.42,0,0,0-5.24,9.14c-1.4,4-2.62,8.13-3.79,12.1l-.25.79C112.53,255,109.87,254.67,107.24,254.23Zm52.1-46.81c9.66,13.2,23.86,21,38.46,27.79A127.51,127.51,0,0,1,128,256c-2.49,0-5-.08-7.4-.23,1.11-3.8,2.29-7.73,3.61-11.49a33.36,33.36,0,0,1,4.57-7.86,51.47,51.47,0,0,0,3.2-4.85c.47-.81.93-1.64,1.4-2.47a40.6,40.6,0,0,1,6-8.92,48.93,48.93,0,0,1,12.74-9.13ZM72.14,62.89A317.21,317.21,0,0,0,66.8,15.58,128,128,0,0,1,207.57,27.74a30.26,30.26,0,0,0-2.31,2.62,33.46,33.46,0,0,0-4.47,8.77c-.42,1-.81,2.08-1.24,3.1l-1.69,3.87a123.57,123.57,0,0,1-10.29,20,79,79,0,0,1-11.19,12.48c-2.7,2.6-5.46,5.28-8,8.19-.66.87-1.34,1.79-2.07,2.68l-5-4.53c-.33-.65-.72-1.35-1.14-2.08a8.49,8.49,0,0,1-1.67-4.58c.17-1.64,2.5-3.47,4.29-4.94.52-.44,1-.86,1.46-1.25a2.6,2.6,0,0,0,.91-1.83,2.65,2.65,0,0,0-4.41-2.16c-.39.35-.84.73-1.32,1.1-2.51,1.95-5.56,4.57-6.18,8.19a12.39,12.39,0,0,0,2.29,8.13l.29.56c-.54.75-1.08,1.56-1.63,2.41-2.58,4-4.48,6.59-7,6.24-6.53-1-7.92,2.7-9.23,6.24s-2.29,8.54,4.43,11.3l1.85.79a47.06,47.06,0,0,0,7.57,2.71,29.55,29.55,0,0,0,4.39.72l6,.25c4.13.21,8.25.42,12.37.71a70,70,0,0,1,16.63,2.83c3.3,1,5.34,4.32,6.91,7.27,2.55,4.83,5,10.11,7.95,17.15a110,110,0,0,0,7.36,13.91c.35.56.68,1.15,1,1.73a39.78,39.78,0,0,1-4.24,2.08A248.62,248.62,0,0,1,172.84,174a101.91,101.91,0,0,1-18.41,3.26c-5.19.31-9.38-1.6-14.12-3.85a12.53,12.53,0,0,0,.42-3.11,10.9,10.9,0,0,0-8.6-11c.15-2.19.33-4.47.56-6.55a93.25,93.25,0,0,0,.76-12.27c-.06-2.22-.2-4.45-.35-6.67-.14-2.56-.33-5.11-.33-7.69v-1.27c0-7.63-.12-19-8.59-22.87a37.09,37.09,0,0,0-18.39-2.62,39.07,39.07,0,0,0-4.8.69c-3.3.58-7.13,1.27-9.19.17-1.36-.71-1.86-2.92-2.17-5.2a56.2,56.2,0,0,1-.35-7.67V85.49c0-3.6-.24-7.19-.49-10.66l-.25-4.16c-.08-1.35-.2-2.75-.31-4.16a46.49,46.49,0,0,1,0-12.47c1.16-5.89,2.13-11.71,2.93-16.63a2.65,2.65,0,1,0-5.22-.88C85.1,41.42,84.17,47.2,83,53a49.64,49.64,0,0,0-.12,13.88c.1,1.48.2,2.85.28,4.16s.27,2.73.27,4.16c.23,3.45.48,7,.48,10.39v1.75a60.84,60.84,0,0,0,.39,8.32c.33,2.28,1.32,7.25,5.07,9.14s8.37,1.06,12.49.34a38.3,38.3,0,0,1,4.12-.63A32.18,32.18,0,0,1,122,106.78c5.57,2.45,5.57,11.74,5.57,18v1.33c0,2.66.18,5.3.35,8,.14,2.16.33,4.41.33,6.49a95.18,95.18,0,0,1-.73,11.56c-.22,2.24-.45,4.57-.59,6.9a11,11,0,0,0-9.4,11.25,11.66,11.66,0,0,0,1.38,5.51,6.67,6.67,0,0,1-3.92.79l-30.73-1.11a14,14,0,0,0-2.06-6.23C74.57,152.62,72.51,134,70.45,116l-.38-3A480,480,0,0,0,72.14,62.89Zm29.39,2.58h0a30,30,0,0,0,.33,6.42c.15,1.29,1.06,6.18,2.21,6.74s4.1,0,5.28,0h13.43V68.4h-3v-13H106.18c-1.52,0-2.12-.31-2.9.69C101.71,58.11,101.65,63.1,101.53,65.47ZM58.92,165.34c-.33,7.53-.59,15.28-.78,23.2-7.4-.81-14.43-4.26-14.43-11.56S51.2,166,58.92,165.34Zm7.45.37a21.57,21.57,0,0,1,7.6,2.71A9.79,9.79,0,0,1,79.08,177c0,6.72-6.37,10.38-13.42,11.41C65.79,180.66,66,173.07,66.37,165.71Zm160.61-7L253.71,152a127.31,127.31,0,0,1-14.12,38.69A123.84,123.84,0,0,0,228.77,177a20.15,20.15,0,0,0-5.79-3.86,22.75,22.75,0,0,1-3.4-2.08,12.4,12.4,0,0,1-3.34-5.61,47.2,47.2,0,0,0,10.31-6.74A1.55,1.55,0,0,0,227,158.75Zm6.31-16.49a68.63,68.63,0,0,1-9.57,12,36.08,36.08,0,0,1-4.53,3.45c-.37-.6-.72-1.2-1.07-1.81A104.81,104.81,0,0,1,211,142.58c-3.09-7.2-5.61-12.62-8.25-17.59a27,27,0,0,0-3.64-5.51L194.81,64.6a167,167,0,0,0,7.79-16.38l1.65-3.85c.47-1.06.9-2.18,1.34-3.29a29.59,29.59,0,0,1,3.71-7.44,28,28,0,0,1,2.26-2.49,127.75,127.75,0,0,1,43.29,79.43L253.2,113c-5.79,8.66-11.79,17.62-17.85,26.31C234.61,140.31,234,141.29,233.29,142.26ZM175,112.08c-4.18-.29-8.39-.5-12.57-.75l-4.37-.21,1.05-1.66a150.54,150.54,0,0,1,13.36-19.19c2.37-2.74,5.07-5.34,7.66-7.84a101.62,101.62,0,0,0,10-10.66l3.42,43.66-.56-.25A73.1,73.1,0,0,0,175,112.08Zm62.64,33.2,2-2.85c5.45-7.8,10.78-15.78,16-23.59.21,3,.37,6.09.37,9.18a129.37,129.37,0,0,1-1.32,18.24l-21.6,5.44C234.69,149.6,236.17,147.36,237.64,145.28ZM163.11,93.74c-3,4.22-5.81,8.61-8.53,12.93l-2.31,3.68a50.5,50.5,0,0,1-5.94-2.22l-1.81-.83c-2.31-1-2.72-1.27-1.51-4.51s1.22-3.25,3.53-2.91c6,.87,9.64-4.58,12.22-8.57l.64-1Zm-96.5,66.57c.39-8.21,1-16.51,1.69-24.74a150.45,150.45,0,0,0,6.37,27.17A28.77,28.77,0,0,0,66.61,160.31Zm-24,27.15a365.42,365.42,0,0,1,15.89,48.06,128.25,128.25,0,0,1-52-67.1l.13-.17,1.58-1.08a31.4,31.4,0,0,0,7.18-5.86c2.51,1.89,5,3.78,7.44,5.86,1.79,1.45,3.56,2.91,5.38,4.32a53.28,53.28,0,0,0,5.91,3.83c1.57.91,3,1.79,4.39,2.76a14.68,14.68,0,0,0,4.12,9.19ZM5.11,102.56c-.7-.67-1.42-1.31-2.06-1.83A128,128,0,0,1,29.84,46l.5,9.07c.78,15.21,1.59,31,3.11,46.4l.14,1.18c.42,3.72.31,5-1.19,5.8a14.28,14.28,0,0,1-5.44,1c-.76,0-1.51.16-2.21.16-1.11.11-2.33.36-3.6.61-2.75.5-5.86,1.12-7.32,0C10.84,107.86,7.93,105.16,5.11,102.56Zm-3.32,4.16c2.83,2.61,5.73,5.3,8.82,7.65l.52.35,1,32.39c0,1,.12,2.12.25,3.22a20.27,20.27,0,0,1,0,5.61c-.54,2.46-4.27,5-7,6.8l-.47.31A127.24,127.24,0,0,1,0,128,129.92,129.92,0,0,1,1.79,106.72ZM236.3,195.21l.35.59a128.69,128.69,0,0,1-33.74,36.08c-14.7-6.92-29.33-14.38-38.81-27a124.56,124.56,0,0,0,16.65-10.58,154.37,154.37,0,0,0,18.16-17.36c2.23-2.37,4.45-4.72,6.72-7,1.94-.7,3.87-1.43,5.77-2.22a16.64,16.64,0,0,0,5,7.73,26,26,0,0,0,4.12,2.48,15.61,15.61,0,0,1,4.43,2.78A132.94,132.94,0,0,1,236.3,195.21Zm-113.44-25a6,6,0,0,1,1.85-4.48,5.94,5.94,0,0,1,4.54-1.64,6.81,6.81,0,0,1,4.43,1.54,5.73,5.73,0,0,1,1.87,4.58,6.35,6.35,0,1,1-12.69,0ZM65.6,193.78a29.94,29.94,0,0,0,7.85-2,172.61,172.61,0,0,0-7.29,27.49c-.15-3.39-.31-6.78-.41-10.13C65.6,204,65.6,198.87,65.6,193.78Zm-7.89-49.89c.47-1.77.95-3.54,1.46-5.2l2-6.82c-.76,9.33-1.5,18.77-2,28.17a32.33,32.33,0,0,0-7.73,1.43,41.91,41.91,0,0,0,2.89-6.23C55.65,151.52,56.7,147.63,57.71,143.89Zm.6,65.46c.1,3.2.24,6.42.39,9.6-2.7-9.12-5.67-18.27-9.19-27.19a29.92,29.92,0,0,0,8.63,2.08C58.12,199,58.14,204.13,58.31,209.35ZM35.61,54.66q-.36-7.15-.78-14.36A128.72,128.72,0,0,1,59.75,19.53,298.84,298.84,0,0,1,64.47,63C64.88,78,64,93.33,62.82,108.4l-8.24,28.79c-.52,1.77-1,3.58-1.49,5.37-1,3.65-2,7.44-3.28,11A46.14,46.14,0,0,1,46,161.29c-.66,1.31-1.38,2.62-2.06,4a14.79,14.79,0,0,0-4.78,6.81l-2.45-1.45a49,49,0,0,1-5.34-3.43c-1.77-1.31-3.55-2.72-5.3-4.16-2.74-2.22-5.56-4.59-8.49-6.67a25.64,25.64,0,0,0,0-6.55c-.1-1-.23-1.93-.23-2.83l-.86-30.87a31.09,31.09,0,0,0,5.52-.77,15.38,15.38,0,0,1,3.07-.54l2.06-.14a18.53,18.53,0,0,0,7.59-1.56c5.09-2.62,4.51-7.76,4.12-11.17l-.12-1.1C37.2,85.53,36.4,69.84,35.61,54.66Z"/><path class="cls-2" d="M331.16,244.49v0a5.77,5.77,0,1,1,0,11.53c-30.3,0-59.2-13-81.43-36.63a6.05,6.05,0,0,1-1.29-6.51,5.79,5.79,0,0,1,5.27-3.41,6.24,6.24,0,0,1,4.56,2.08C278.22,232.8,304.09,244.49,331.16,244.49Zm23.33-233.3v.05A5.64,5.64,0,0,1,355.09,0h.71a102.4,102.4,0,0,1,66.08,34.6,5.64,5.64,0,0,1,0,7.39,5.82,5.82,0,0,1-4.29,1.93,5.65,5.65,0,0,1-4.33-2A91.11,91.11,0,0,0,354.49,11.19ZM355,144.57c-1.88-.48-3.77-1-5.6-1.35V117.63c5,1.24,7.74,3.37,8.91,6.8a50.32,50.32,0,0,1,1.87,9.4,53.47,53.47,0,0,0,2.38,11.34c.14.4.31.8.48,1.19C360.38,145.9,357.67,145.24,355,144.57Zm10.06-22.51c-2.65-7.66-9.5-10.41-15.56-11.74V84.13a86.65,86.65,0,0,1,76.7,46L421.26,134c-.53.42-1.07.92-1.63,1.42a20,20,0,0,1-2.37,1.93H417c-1-.41-13.12-7.55-14.94-8.74a2.67,2.67,0,0,0-4.13,2.07,2.69,2.69,0,0,0,1.2,2.39l.81.39-4.46,1.58-1.27.42a7.66,7.66,0,0,0-5.64,4.66c-.25.54-.56,1.39-.88,2.33a36.47,36.47,0,0,1-1.74,4.37c-2.3.12-9.71,0-14.79,0a39.46,39.46,0,0,1-1.83-4.16,48.18,48.18,0,0,1-2.09-9.87A55.56,55.56,0,0,0,365.07,122.06Zm6.6,130.5a1.29,1.29,0,0,0-.21.19,88.05,88.05,0,0,1-12.68,2.41c-3.13.34-4.67,1-7-.52a5,5,0,0,1-2.37-4.16V193.91L374,248C373.13,249.5,372.38,251,371.67,252.56Zm29.55-46.4c4.56,6.91,11.91,11.34,18.14,14.46a86.57,86.57,0,0,1-18.74,18.46l-5.17-7.3a2.67,2.67,0,0,0-3.93-.48l-13.31,11.55-.42.41L349.49,181V148.71c1.42.33,2.85.67,4.29,1a80.85,80.85,0,0,0,12,2.37,44.49,44.49,0,0,0,12.08,14.26c3,2.16,9.91,6,15.49,4.76A8.31,8.31,0,0,0,399,167a20.74,20.74,0,0,0,2.09-8.32c.68-8.57,3.27-9.26,4.95-8.14,3.31,2.21,1.4,7.83-1.16,13.55l-.52,1.18a80.2,80.2,0,0,0-6.94,20.1A28.68,28.68,0,0,0,401.22,206.16Zm29.32-55.58c1.19.61,2.4,1,3.59,1.59a85.12,85.12,0,0,1-10.88,62.56h-.12c-5.54-2.83-12.14-6.72-15.95-12.48a21.43,21.43,0,0,1-2.69-15.69,72.88,72.88,0,0,1,6.33-18.25l.52-1.18c2.23-5,6.79-16.65-2.31-22-15.68-9.17-11.7,15.88-16.31,18.52-.31.17-.37.5-.91.63-2.31.45-7-1.44-9.77-3.52a35.46,35.46,0,0,1-7.85-8.32h5a36.58,36.58,0,0,0,9.16-.61c1.94-1.1,3-3.8,4.29-7.47.27-.77.5-1.45.71-1.89.52-1.19.6-1.21,2.39-1.79l1.44-.46,6.85-2.43.92-.38c.27-.12.77-.37.64-.37.5.1,9,5.08,9,5.08l6.25,3.43a2.48,2.48,0,0,0,1.33.35,2.6,2.6,0,0,0,2.31-1.35,2.65,2.65,0,0,0-1-3.64l-1.25-.69c.32-.27.42-.37.9-.79s.94-.85,1.39-1.2l4-3.23a88.18,88.18,0,0,1,4,10.63,2.65,2.65,0,1,0-1.94,4.93Zm-34.4,91.56a86.16,86.16,0,0,1-17.49,8.49,15.3,15.3,0,0,1,3-3.73l11.08-9.63ZM294.38,127l-20.2-17.67a145.06,145.06,0,0,0-18.51-54.84l15.79,13.4a6,6,0,0,1,2.08,3.64,66.12,66.12,0,0,1,1.87,10q.54,4.42,1.52,8.78a39.92,39.92,0,0,0,10,19.78A34.17,34.17,0,0,0,312,120.66a38.89,38.89,0,0,0,4.94-.31c6.29-.79,12.56-1.95,18.64-3.22V140l-32.76-9c-.58-.18-1.33-.35-2.08-.52a16.61,16.61,0,0,1-3.54-1,8.58,8.58,0,0,1-1.75-1.48Zm7.09,9.11,34.17,9.41v24.36a85.37,85.37,0,0,1-61.31-26.3,146.28,146.28,0,0,0,1-16.21c0-3.45-.15-6.86-.38-10.25l16,13.92c.27.23.54.5.83.77a12.44,12.44,0,0,0,3.08,2.41,18.83,18.83,0,0,0,4.81,1.46C300.26,135.85,300.88,136,301.47,136.14ZM330.41.1c5.65-.31,5.23,6.06,5.23,6.06V110c-6.37,1.33-13,2.6-19.51,3.41a27.71,27.71,0,0,1-24-8.09A32.83,32.83,0,0,1,284,88.83,79.29,79.29,0,0,1,282.62,81l.39.25a17.44,17.44,0,0,0,9,3.6,11.81,11.81,0,0,0,6.1-1.7c1.56-.88,2.29-1.06,3-.88a24.36,24.36,0,0,1,7.16,3.87c1.17.88,1.31,1-.62,4.56l-.5.94a3.57,3.57,0,0,0,1.5,4.8,3.68,3.68,0,0,0,1.66.42A3.55,3.55,0,0,0,313.4,95l.48-.88c1.68-3.22,4.85-9-1.4-13.63a31.16,31.16,0,0,0-9.39-5.1A10.76,10.76,0,0,0,295,76.7a5.49,5.49,0,0,1-2.87,1c-4.46-.43-10.25-5.16-10.88-5.16-.25-1.08-.5-1.83-.83-2.91a12.81,12.81,0,0,0-4.31-7L260,48.88a3.51,3.51,0,0,0-1.48-.71,86.11,86.11,0,0,1,23.27-29.28l.14.32a2.69,2.69,0,0,0,2.44,1.56,2.74,2.74,0,0,0,1.1-.23A2.7,2.7,0,0,0,286.85,17l-.65-1.42A85.13,85.13,0,0,1,330.41.1Zm54.15,117.8a2.65,2.65,0,0,0,.21,3.76c1.77,1.6,3.58,3.21,5.41,4.77a2.74,2.74,0,0,0,1.73.62,2.68,2.68,0,0,0,1.73-4.72c-1.79-1.5-3.56-3.08-5.29-4.64A2.68,2.68,0,0,0,384.56,117.9Zm-8.33-12.34v0a2.67,2.67,0,0,0-4.44,3,16.46,16.46,0,0,0,1.73,2.08l2.09,2.09,1.29,1.37a2.62,2.62,0,0,0,1.93.83,2.74,2.74,0,0,0,1.86-.73,2.7,2.7,0,0,0,.1-3.78l-1.29-1.36c-.73-.64-1.4-1.37-2.08-2.08A13.46,13.46,0,0,1,376.23,105.56ZM363.92,89.37l0,0a2.64,2.64,0,0,0-.43,3.7,28.39,28.39,0,0,1,3.33,5.58,2.7,2.7,0,0,0,2.39,1.5,2.67,2.67,0,0,0,2.42-3.83,33.34,33.34,0,0,0-4-6.62,2.63,2.63,0,0,0-1.8-1A2.67,2.67,0,0,0,363.92,89.37Zm-72-52.12a2.61,2.61,0,0,0,1-.11,2.65,2.65,0,0,0,1.41-3.51c-.44-1.05-.89-2.11-1.37-3.13l-1.52-3.64a2.67,2.67,0,0,0-4.86,2.23l1.59,3.52c.46.93.89,2,1.33,3A2.67,2.67,0,0,0,291.93,37.25Zm9.81,15.54a2.66,2.66,0,0,0,.66-3.73c-1-1.43-2-3-2.91-4.55-.25-.42-.5-.86-.73-1.31A2.67,2.67,0,1,0,294,45.69c.25.5.52,1,.79,1.46,1,1.75,2.13,3.41,3.19,5a2.67,2.67,0,0,0,2.21,1.17A2.85,2.85,0,0,0,301.74,52.79ZM316,64.07a2.66,2.66,0,0,0-.19-2.07,2.6,2.6,0,0,0-1.62-1.3l-2.64-.84a10.21,10.21,0,0,1-2.88-1.29,4.4,4.4,0,0,1-.56-.58A2.66,2.66,0,1,0,304,61.32a8.25,8.25,0,0,0,1.49,1.52,15.6,15.6,0,0,0,4.61,2.08l.87.27.65.21,1.1.35a2.74,2.74,0,0,0,1.83,0A2.64,2.64,0,0,0,316,64.07Zm15.71,6.41a2.69,2.69,0,0,0-1.5-3.48l-6.73-2.66a2.67,2.67,0,0,0-2,5L328.27,72a2.65,2.65,0,0,0,1,.19A2.7,2.7,0,0,0,331.75,70.48Z"/><path class="cls-1" d="M663.15,113a28.21,28.21,0,0,1-20.85,9.17c-18.68,0-32.22-14.69-32.22-34.87,0-21.56,16.73-34.87,32.22-34.87a27.75,27.75,0,0,1,20.85,9V26.11A1.11,1.11,0,0,1,664.26,25h11a1.13,1.13,0,0,1,1.13,1.11v93a1.13,1.13,0,0,1-1.13,1.1h-11a1.11,1.11,0,0,1-1.11-1.1Zm-39.86-25.7c0,11.28,5.17,23.43,19.93,23.49,12.48,0,19.93-12,19.93-23.49,0-14.73-7.45-23.51-19.93-23.51C629.47,63.75,623.29,75.94,623.29,87.26Zm66.58,32.94a1.08,1.08,0,0,1-.78-.32,1.11,1.11,0,0,1-.33-.78V55.28a1.11,1.11,0,0,1,1.11-1.11h10.07a1.1,1.1,0,0,1,1.11,1l.64,6.31a27.11,27.11,0,0,1,21-9.15c16.57,0,25,10.82,25,32.11V119.1a1.12,1.12,0,0,1-1.13,1.1h-11a1.1,1.1,0,0,1-1.11-1.1V87.26c0-5.54,0-11.67-1.78-16.19-1.93-5-5.62-7.32-11.79-7.32-7.64,0-19,6.42-19,15.3V119.1a1.13,1.13,0,0,1-1.13,1.1Zm174.72,41.4a1.11,1.11,0,0,1,1,1.05,1.46,1.46,0,0,1,0,.51L837,231.94c-5.62,13-14.6,21.21-25.28,23.06h0a1.2,1.2,0,0,1-.87-.41l-6-7.28a1.13,1.13,0,0,1,.6-1.81c10.35-2.56,16.36-8.24,20.05-19l-26.62-63.39a1.09,1.09,0,0,1,0-1,1.18,1.18,0,0,1,.95-.49h11.46a1.08,1.08,0,0,1,1.05.72l19.83,50.87,20.34-50.89a1.11,1.11,0,0,1,1-.7ZM517.89,25c25.32,0,45.93,21.77,45.93,48.51s-20.63,48.62-45.93,48.62S472,100.26,472,73.51,492.59,25,517.89,25ZM550.6,73.51c0-20.49-14.66-37.17-32.71-37.17S485.16,53,485.16,73.51s14.69,37.18,32.73,37.18S550.6,94,550.6,73.51Zm65.86,88.09a1.13,1.13,0,0,1,.8.32,1.11,1.11,0,0,1,.33.79v63.82a1.13,1.13,0,0,1-.33.79,1.08,1.08,0,0,1-.8.31H606.41a1.07,1.07,0,0,1-1.11-1l-.66-6.32a27,27,0,0,1-21,9.15c-16.57,0-25-10.79-25-32.1V162.71a1.12,1.12,0,0,1,1.13-1.11h11a1.11,1.11,0,0,1,.78.33,1.07,1.07,0,0,1,.33.78v31.9c0,5.78,0,11.67,1.75,16.2,1.95,5,5.64,7.31,11.81,7.31,7.64,0,19-6.42,19-15.29V162.71a1.07,1.07,0,0,1,.33-.78,1.11,1.11,0,0,1,.79-.33Zm121.34.49a1.13,1.13,0,0,1,.1,1.07L710.64,227a1.09,1.09,0,0,1-1,.67H699.07a1.1,1.1,0,0,1-1-.67l-26.87-63.82a1.09,1.09,0,0,1,.1-1,1.12,1.12,0,0,1,.93-.49h11.45a1.1,1.1,0,0,1,1.05.72l19.61,50.24,20.32-50.26a1.1,1.1,0,0,1,1-.7h11.18A1.14,1.14,0,0,1,737.8,162.09Zm31.46-2.31c19.59,0,30.38,12.88,30.38,36.35a1.08,1.08,0,0,1-.32.79,1.1,1.1,0,0,1-.79.33H750.32c.8,10.32,6.13,20.93,18.94,20.93,9.4,0,17.8-2.85,23-7.82a1.19,1.19,0,0,1,1-.29,1.08,1.08,0,0,1,.78.7l3.22,8.62a1.15,1.15,0,0,1-.31,1.25c-8.61,7.34-19.83,8.88-27.71,8.88-19.27,0-32.24-14-32.24-34.87C737,174.42,750.58,159.78,769.26,159.78Zm-18.82,28h35.8c-1.93-11.29-7.37-16.56-17-16.56S752.37,177.66,750.44,187.78ZM573.68,120.2a1.11,1.11,0,0,1-1.11-1.1V55.38a1.11,1.11,0,0,1,1.11-1.11h10.07a1.12,1.12,0,0,1,1.11,1l.57,5.78a19.65,19.65,0,0,1,16.27-8.67,28.6,28.6,0,0,1,7,1,1.1,1.1,0,0,1,.86,1.09v10a1.11,1.11,0,0,1-1.67,1,10.32,10.32,0,0,0-6.75-1.68c-14.26,0-15.36,15.9-15.36,20.76V119.1a1.13,1.13,0,0,1-.33.79,1.08,1.08,0,0,1-.8.31ZM993.61,52.39c19.6,0,30.39,12.86,30.39,36.26a1.11,1.11,0,0,1-1.11,1.11H974.67c.81,10.34,6.16,20.93,18.94,20.93,9.54,0,17.77-2.92,23-7.84a1.11,1.11,0,0,1,1-.29,1.14,1.14,0,0,1,.82.7l3.21,8.62a1.06,1.06,0,0,1-.35,1.35c-8.6,7.36-19.8,8.9-27.71,8.9-19.27,0-32.22-14-32.22-34.87C961.39,67,974.94,52.39,993.61,52.39ZM974.8,80.28h35.8c-1.94-11.28-7.37-16.55-17-16.55S976.73,70.19,974.8,80.28Zm-455,91.56c19.95,5.25,30.06,15.36,30,30.07-.08,16.23-12.58,27.55-30.39,27.55-13.3-.14-25.3-4.57-32.09-11.86a1.1,1.1,0,0,1,0-1.39l5.74-8.21a1.17,1.17,0,0,1,.81-.47,1,1,0,0,1,.86.29,38.2,38.2,0,0,0,24.7,10.26,15.7,15.7,0,0,0,16.27-16.23c.1-11.06-8.67-14.32-19.31-17.21C499.36,180,490,170.22,490,157.21c0-17,15.28-24.82,29.46-24.82a43.92,43.92,0,0,1,23,6.63,1.13,1.13,0,0,1,.49.73,1,1,0,0,1-.18.84l-5.62,8a1.15,1.15,0,0,1-1.46.35,37.32,37.32,0,0,0-16.27-5.13c-8,0-16.24,4.17-16.24,13.48C503,166.24,512.6,169.79,519.82,171.84ZM666.14,160.7a1.15,1.15,0,0,1,.86,1.11v10a1.13,1.13,0,0,1-.58,1,1.15,1.15,0,0,1-1.11,0,10.45,10.45,0,0,0-6.77-1.68c-14.23,0-15.34,15.9-15.34,20.76v34.65a1.14,1.14,0,0,1-.32.78,1.12,1.12,0,0,1-.79.32h-11a1.11,1.11,0,0,1-1.12-1.1V162.71a1.07,1.07,0,0,1,.33-.78,1.11,1.11,0,0,1,.79-.33h10.06a1.12,1.12,0,0,1,1.12,1l.57,5.78a19.65,19.65,0,0,1,16.27-8.68A30.87,30.87,0,0,1,666.14,160.7Zm287-56.46a1.07,1.07,0,0,1,.68.83l2.84,8.61a1.13,1.13,0,0,1-.35,1.21c-5.83,4.8-13.63,7.24-23.18,7.24-19.52,0-33.17-14.77-33.17-35s14-34.88,33.29-34.88c4.8,0,16.68.93,22.85,9.46a1.1,1.1,0,0,1,0,1.29l-4.63,6.69a1,1,0,0,1-.86.49,1.49,1.49,0,0,1-.93-.43c-4.59-5.7-9.94-6.15-16.47-6.15-14.7,0-19.91,12.65-19.91,23.51,0,14.91,7.25,23.48,19.91,23.48a28.33,28.33,0,0,0,18.9-6.15A1,1,0,0,1,953.16,104.24Zm-166.3,17.89c-18.67,0-32.22-14.75-32.22-34.87,0-21.56,16.72-34.87,32.22-34.87A27.74,27.74,0,0,1,808,61.64l.66-6.46a1.1,1.1,0,0,1,1.11-1H819.8a1.11,1.11,0,0,1,1.11,1.11v63.94a1.11,1.11,0,0,1-1.11,1.11h-11a1.11,1.11,0,0,1-1.11-1.11v-6.15A28.21,28.21,0,0,1,786.86,122.13Zm-19-34.87c0,11.28,5.23,23.43,19.9,23.49,12.48,0,19.93-12,19.93-23.49,0-14.73-7.45-23.51-19.93-23.51C774,63.75,767.86,75.94,767.86,87.26Zm99.41-34.87c16.59,0,25,10.77,24.91,32.06V119.1a1.11,1.11,0,0,1-1.11,1.1h-11a1.11,1.11,0,0,1-1.12-1.1V87.26c0-5.54,0-11.67-1.75-16.19-2-5-5.64-7.32-11.81-7.32-7.62,0-19,6.42-19,15.3V119.1a1.11,1.11,0,0,1-1.11,1.1h-11a1.11,1.11,0,0,1-1.11-1.1V55.32a1.11,1.11,0,0,1,1.11-1.11h10.13a1.11,1.11,0,0,1,1.11,1l.64,6.31A27.12,27.12,0,0,1,867.27,52.39Z"/></svg>